<?xml version="1.0" encoding="UTF-8" standalone="no"?>
<!DOCTYPE svg PUBLIC "-//W3C//DTD SVG 1.1//EN"
 "http://www.w3.org/Graphics/SVG/1.1/DTD/svg11.dtd">
<!-- Generated by graphviz version 2.40.1 (20161225.0304)
 -->
<!-- Title: snakemake_dag Pages: 1 -->
<svg width="528pt" height="548pt"
 viewBox="0.00 0.00 528.00 548.00" xmlns="http://www.w3.org/2000/svg" xmlns:xlink="http://www.w3.org/1999/xlink">
<g id="graph0" class="graph" transform="scale(1 1) rotate(0) translate(4 544)">
<title>snakemake_dag</title>
<polygon fill="#ffffff" stroke="transparent" points="-4,4 -4,-544 524,-544 524,4 -4,4"/>
<!-- 0 -->
<g id="node1" class="node">
<title>0</title>
<path fill="none" stroke="#56d8d0" stroke-width="2" d="M197.5,-36C197.5,-36 167.5,-36 167.5,-36 161.5,-36 155.5,-30 155.5,-24 155.5,-24 155.5,-12 155.5,-12 155.5,-6 161.5,0 167.5,0 167.5,0 197.5,0 197.5,0 203.5,0 209.5,-6 209.5,-12 209.5,-12 209.5,-24 209.5,-24 209.5,-30 203.5,-36 197.5,-36"/>
<text text-anchor="middle" x="182.5" y="-15.5" font-family="sans" font-size="10.00" fill="#000000">all</text>
</g>
<!-- 1 -->
<g id="node2" class="node">
<title>1</title>
<path fill="none" stroke="#8fd856" stroke-width="2" d="M151.5,-108C151.5,-108 109.5,-108 109.5,-108 103.5,-108 97.5,-102 97.5,-96 97.5,-96 97.5,-84 97.5,-84 97.5,-78 103.5,-72 109.5,-72 109.5,-72 151.5,-72 151.5,-72 157.5,-72 163.5,-78 163.5,-84 163.5,-84 163.5,-96 163.5,-96 163.5,-102 157.5,-108 151.5,-108"/>
<text text-anchor="middle" x="130.5" y="-87.5" font-family="sans" font-size="10.00" fill="#000000">bwa_stats</text>
</g>
<!-- 1&#45;&gt;0 -->
<g id="edge2" class="edge">
<title>1&#45;&gt;0</title>
<path fill="none" stroke="#c0c0c0" stroke-width="2" d="M143.6218,-71.8314C149.5499,-63.6232 156.6729,-53.7606 163.1933,-44.7323"/>
<polygon fill="#c0c0c0" stroke="#c0c0c0" stroke-width="2" points="166.184,-46.5693 169.2015,-36.4133 160.5092,-42.4708 166.184,-46.5693"/>
</g>
<!-- 2 -->
<g id="node3" class="node">
<title>2</title>
<path fill="none" stroke="#56c9d8" stroke-width="2" d="M277.5,-108C277.5,-108 193.5,-108 193.5,-108 187.5,-108 181.5,-102 181.5,-96 181.5,-96 181.5,-84 181.5,-84 181.5,-78 187.5,-72 193.5,-72 193.5,-72 277.5,-72 277.5,-72 283.5,-72 289.5,-78 289.5,-84 289.5,-84 289.5,-96 289.5,-96 289.5,-102 283.5,-108 277.5,-108"/>
<text text-anchor="middle" x="235.5" y="-87.5" font-family="sans" font-size="10.00" fill="#000000">pr_precision_recall</text>
</g>
<!-- 2&#45;&gt;0 -->
<g id="edge1" class="edge">
<title>2&#45;&gt;0</title>
<path fill="none" stroke="#c0c0c0" stroke-width="2" d="M222.1259,-71.8314C216.0838,-63.6232 208.8237,-53.7606 202.1779,-44.7323"/>
<polygon fill="#c0c0c0" stroke="#c0c0c0" stroke-width="2" points="204.8011,-42.3918 196.0542,-36.4133 199.1637,-46.5415 204.8011,-42.3918"/>
</g>
<!-- 3 -->
<g id="node4" class="node">
<title>3</title>
<path fill="none" stroke="#d85656" stroke-width="2" d="M71.5,-252C71.5,-252 31.5,-252 31.5,-252 25.5,-252 19.5,-246 19.5,-240 19.5,-240 19.5,-228 19.5,-228 19.5,-222 25.5,-216 31.5,-216 31.5,-216 71.5,-216 71.5,-216 77.5,-216 83.5,-222 83.5,-228 83.5,-228 83.5,-240 83.5,-240 83.5,-246 77.5,-252 71.5,-252"/>
<text text-anchor="middle" x="51.5" y="-231.5" font-family="sans" font-size="10.00" fill="#000000">bwa_map</text>
</g>
<!-- 3&#45;&gt;1 -->
<g id="edge3" class="edge">
<title>3&#45;&gt;1</title>
<path fill="none" stroke="#c0c0c0" stroke-width="2" d="M50.1122,-215.8629C49.4811,-196.757 50.9009,-166.3931 63.5,-144 69.974,-132.4933 79.9628,-122.4958 90.2681,-114.3368"/>
<polygon fill="#c0c0c0" stroke="#c0c0c0" stroke-width="2" points="92.5981,-116.9661 98.5395,-108.1939 88.4245,-111.3464 92.5981,-116.9661"/>
</g>
<!-- 4 -->
<g id="node5" class="node">
<title>4</title>
<path fill="none" stroke="#569ad8" stroke-width="2" d="M389,-180C389,-180 256,-180 256,-180 250,-180 244,-174 244,-168 244,-168 244,-156 244,-156 244,-150 250,-144 256,-144 256,-144 389,-144 389,-144 395,-144 401,-150 401,-156 401,-156 401,-168 401,-168 401,-174 395,-180 389,-180"/>
<text text-anchor="middle" x="322.5" y="-159.5" font-family="sans" font-size="10.00" fill="#000000">pr_compute_false_negatives</text>
</g>
<!-- 4&#45;&gt;2 -->
<g id="edge4" class="edge">
<title>4&#45;&gt;2</title>
<path fill="none" stroke="#c0c0c0" stroke-width="2" d="M300.5462,-143.8314C289.8305,-134.9632 276.7811,-124.1637 265.191,-114.5718"/>
<polygon fill="#c0c0c0" stroke="#c0c0c0" stroke-width="2" points="267.3822,-111.8422 257.4467,-108.1628 262.9192,-117.2349 267.3822,-111.8422"/>
</g>
<!-- 5 -->
<g id="node6" class="node">
<title>5</title>
<path fill="none" stroke="#d8c356" stroke-width="2" d="M508,-180C508,-180 431,-180 431,-180 425,-180 419,-174 419,-168 419,-168 419,-156 419,-156 419,-150 425,-144 431,-144 431,-144 508,-144 508,-144 514,-144 520,-150 520,-156 520,-156 520,-168 520,-168 520,-174 514,-180 508,-180"/>
<text text-anchor="middle" x="469.5" y="-159.5" font-family="sans" font-size="10.00" fill="#000000">pr_true_positives</text>
</g>
<!-- 5&#45;&gt;2 -->
<g id="edge6" class="edge">
<title>5&#45;&gt;2</title>
<path fill="none" stroke="#c0c0c0" stroke-width="2" d="M418.7255,-146.3771C383.8061,-135.6326 337.1514,-121.2774 299.6602,-109.7416"/>
<polygon fill="#c0c0c0" stroke="#c0c0c0" stroke-width="2" points="300.4309,-106.3169 289.8438,-106.7212 298.3723,-113.0073 300.4309,-106.3169"/>
</g>
<!-- 6 -->
<g id="node7" class="node">
<title>6</title>
<path fill="none" stroke="#56d892" stroke-width="2" d="M214,-180C214,-180 85,-180 85,-180 79,-180 73,-174 73,-168 73,-168 73,-156 73,-156 73,-150 79,-144 85,-144 85,-144 214,-144 214,-144 220,-144 226,-150 226,-156 226,-156 226,-168 226,-168 226,-174 220,-180 214,-180"/>
<text text-anchor="middle" x="149.5" y="-159.5" font-family="sans" font-size="10.00" fill="#000000">pr_compute_false_positives</text>
</g>
<!-- 6&#45;&gt;2 -->
<g id="edge5" class="edge">
<title>6&#45;&gt;2</title>
<path fill="none" stroke="#c0c0c0" stroke-width="2" d="M171.2014,-143.8314C181.6921,-135.0485 194.4455,-124.3712 205.8194,-114.8489"/>
<polygon fill="#c0c0c0" stroke="#c0c0c0" stroke-width="2" points="208.3847,-117.2659 213.8055,-108.1628 203.8911,-111.8986 208.3847,-117.2659"/>
</g>
<!-- 7 -->
<g id="node8" class="node">
<title>7</title>
<path fill="none" stroke="#d86e56" stroke-width="2" d="M231,-324C231,-324 150,-324 150,-324 144,-324 138,-318 138,-312 138,-312 138,-300 138,-300 138,-294 144,-288 150,-288 150,-288 231,-288 231,-288 237,-288 243,-294 243,-300 243,-300 243,-312 243,-312 243,-318 237,-324 231,-324"/>
<text text-anchor="middle" x="190.5" y="-303.5" font-family="sans" font-size="10.00" fill="#000000">exfi_gfa_to_exons</text>
</g>
<!-- 7&#45;&gt;3 -->
<g id="edge8" class="edge">
<title>7&#45;&gt;3</title>
<path fill="none" stroke="#c0c0c0" stroke-width="2" d="M155.4244,-287.8314C136.3147,-277.9328 112.5596,-265.628 92.5864,-255.2822"/>
<polygon fill="#c0c0c0" stroke="#c0c0c0" stroke-width="2" points="94.1953,-252.1739 83.706,-250.6822 90.9756,-258.3895 94.1953,-252.1739"/>
</g>
<!-- 9 -->
<g id="node10" class="node">
<title>9</title>
<path fill="none" stroke="#78d856" stroke-width="2" d="M230,-252C230,-252 155,-252 155,-252 149,-252 143,-246 143,-240 143,-240 143,-228 143,-228 143,-222 149,-216 155,-216 155,-216 230,-216 230,-216 236,-216 242,-222 242,-228 242,-228 242,-240 242,-240 242,-246 236,-252 230,-252"/>
<text text-anchor="middle" x="192.5" y="-231.5" font-family="sans" font-size="10.00" fill="#000000">pr_exons_to_bed</text>
</g>
<!-- 7&#45;&gt;9 -->
<g id="edge17" class="edge">
<title>7&#45;&gt;9</title>
<path fill="none" stroke="#c0c0c0" stroke-width="2" d="M191.0047,-287.8314C191.2186,-280.131 191.4729,-270.9743 191.7106,-262.4166"/>
<polygon fill="#c0c0c0" stroke="#c0c0c0" stroke-width="2" points="195.2094,-262.5066 191.9885,-252.4133 188.2121,-262.3122 195.2094,-262.5066"/>
</g>
<!-- 8 -->
<g id="node9" class="node">
<title>8</title>
<path fill="none" stroke="#a7d856" stroke-width="2" d="M74,-324C74,-324 29,-324 29,-324 23,-324 17,-318 17,-312 17,-312 17,-300 17,-300 17,-294 23,-288 29,-288 29,-288 74,-288 74,-288 80,-288 86,-294 86,-300 86,-300 86,-312 86,-312 86,-318 80,-324 74,-324"/>
<text text-anchor="middle" x="51.5" y="-303.5" font-family="sans" font-size="10.00" fill="#000000">bwa_index</text>
</g>
<!-- 8&#45;&gt;3 -->
<g id="edge7" class="edge">
<title>8&#45;&gt;3</title>
<path fill="none" stroke="#c0c0c0" stroke-width="2" d="M51.5,-287.8314C51.5,-280.131 51.5,-270.9743 51.5,-262.4166"/>
<polygon fill="#c0c0c0" stroke="#c0c0c0" stroke-width="2" points="55.0001,-262.4132 51.5,-252.4133 48.0001,-262.4133 55.0001,-262.4132"/>
</g>
<!-- 9&#45;&gt;4 -->
<g id="edge10" class="edge">
<title>9&#45;&gt;4</title>
<path fill="none" stroke="#c0c0c0" stroke-width="2" d="M225.3045,-215.8314C242.0862,-206.5368 262.6985,-195.1208 280.6163,-185.1971"/>
<polygon fill="#c0c0c0" stroke="#c0c0c0" stroke-width="2" points="282.6538,-188.0696 289.706,-180.1628 279.2623,-181.9461 282.6538,-188.0696"/>
</g>
<!-- 9&#45;&gt;5 -->
<g id="edge12" class="edge">
<title>9&#45;&gt;5</title>
<path fill="none" stroke="#c0c0c0" stroke-width="2" d="M242.1778,-219.3131C246.3383,-218.1636 250.4867,-217.0448 254.5,-216 320.2671,-198.8789 340.0076,-198.401 408.6895,-180.398"/>
<polygon fill="#c0c0c0" stroke="#c0c0c0" stroke-width="2" points="409.9476,-183.6854 418.7155,-177.7378 408.1524,-176.9195 409.9476,-183.6854"/>
</g>
<!-- 9&#45;&gt;6 -->
<g id="edge14" class="edge">
<title>9&#45;&gt;6</title>
<path fill="none" stroke="#c0c0c0" stroke-width="2" d="M181.6493,-215.8314C176.7977,-207.7079 170.9783,-197.9637 165.632,-189.0118"/>
<polygon fill="#c0c0c0" stroke="#c0c0c0" stroke-width="2" points="168.6292,-187.2041 160.4968,-180.4133 162.6194,-190.7933 168.6292,-187.2041"/>
</g>
<!-- 10 -->
<g id="node11" class="node">
<title>10</title>
<path fill="none" stroke="#566bd8" stroke-width="2" d="M369.5,-252C369.5,-252 275.5,-252 275.5,-252 269.5,-252 263.5,-246 263.5,-240 263.5,-240 263.5,-228 263.5,-228 263.5,-222 269.5,-216 275.5,-216 275.5,-216 369.5,-216 369.5,-216 375.5,-216 381.5,-222 381.5,-228 381.5,-228 381.5,-240 381.5,-240 381.5,-246 375.5,-252 369.5,-252"/>
<text text-anchor="middle" x="322.5" y="-231.5" font-family="sans" font-size="10.00" fill="#000000">pr_gff3_to_exon_bed</text>
</g>
<!-- 10&#45;&gt;4 -->
<g id="edge9" class="edge">
<title>10&#45;&gt;4</title>
<path fill="none" stroke="#c0c0c0" stroke-width="2" d="M322.5,-215.8314C322.5,-208.131 322.5,-198.9743 322.5,-190.4166"/>
<polygon fill="#c0c0c0" stroke="#c0c0c0" stroke-width="2" points="326.0001,-190.4132 322.5,-180.4133 319.0001,-190.4133 326.0001,-190.4132"/>
</g>
<!-- 10&#45;&gt;5 -->
<g id="edge11" class="edge">
<title>10&#45;&gt;5</title>
<path fill="none" stroke="#c0c0c0" stroke-width="2" d="M359.5943,-215.8314C378.9926,-206.3302 402.917,-194.6121 423.4862,-184.5374"/>
<polygon fill="#c0c0c0" stroke="#c0c0c0" stroke-width="2" points="425.2314,-187.5799 432.6724,-180.038 422.1522,-181.2935 425.2314,-187.5799"/>
</g>
<!-- 10&#45;&gt;6 -->
<g id="edge13" class="edge">
<title>10&#45;&gt;6</title>
<path fill="none" stroke="#c0c0c0" stroke-width="2" d="M278.8448,-215.8314C255.6042,-206.159 226.8432,-194.1891 202.3477,-183.9944"/>
<polygon fill="#c0c0c0" stroke="#c0c0c0" stroke-width="2" points="203.4185,-180.6491 192.8413,-180.038 200.7288,-187.1117 203.4185,-180.6491"/>
</g>
<!-- 11 -->
<g id="node12" class="node">
<title>11</title>
<path fill="none" stroke="#d89c56" stroke-width="2" d="M244,-396C244,-396 137,-396 137,-396 131,-396 125,-390 125,-384 125,-384 125,-372 125,-372 125,-366 131,-360 137,-360 137,-360 244,-360 244,-360 250,-360 256,-366 256,-372 256,-372 256,-384 256,-384 256,-390 250,-396 244,-396"/>
<text text-anchor="middle" x="190.5" y="-375.5" font-family="sans" font-size="10.00" fill="#000000">exfi_build_splice_graph</text>
</g>
<!-- 11&#45;&gt;7 -->
<g id="edge15" class="edge">
<title>11&#45;&gt;7</title>
<path fill="none" stroke="#c0c0c0" stroke-width="2" d="M190.5,-359.8314C190.5,-352.131 190.5,-342.9743 190.5,-334.4166"/>
<polygon fill="#c0c0c0" stroke="#c0c0c0" stroke-width="2" points="194.0001,-334.4132 190.5,-324.4133 187.0001,-334.4133 194.0001,-334.4132"/>
</g>
<!-- 12 -->
<g id="node13" class="node">
<title>12</title>
<path fill="none" stroke="#56d863" stroke-width="2" d="M91,-396C91,-396 12,-396 12,-396 6,-396 0,-390 0,-384 0,-384 0,-372 0,-372 0,-366 6,-360 12,-360 12,-360 91,-360 91,-360 97,-360 103,-366 103,-372 103,-372 103,-384 103,-384 103,-390 97,-396 91,-396"/>
<text text-anchor="middle" x="51.5" y="-375.5" font-family="sans" font-size="10.00" fill="#000000">raw_link_genome</text>
</g>
<!-- 12&#45;&gt;8 -->
<g id="edge16" class="edge">
<title>12&#45;&gt;8</title>
<path fill="none" stroke="#c0c0c0" stroke-width="2" d="M51.5,-359.8314C51.5,-352.131 51.5,-342.9743 51.5,-334.4166"/>
<polygon fill="#c0c0c0" stroke="#c0c0c0" stroke-width="2" points="55.0001,-334.4132 51.5,-324.4133 48.0001,-334.4133 55.0001,-334.4132"/>
</g>
<!-- 13 -->
<g id="node14" class="node">
<title>13</title>
<path fill="none" stroke="#56d8a2" stroke-width="2" d="M368.5,-324C368.5,-324 276.5,-324 276.5,-324 270.5,-324 264.5,-318 264.5,-312 264.5,-312 264.5,-300 264.5,-300 264.5,-294 270.5,-288 276.5,-288 276.5,-288 368.5,-288 368.5,-288 374.5,-288 380.5,-294 380.5,-300 380.5,-300 380.5,-312 380.5,-312 380.5,-318 374.5,-324 368.5,-324"/>
<text text-anchor="middle" x="322.5" y="-303.5" font-family="sans" font-size="10.00" fill="#000000">raw_link_annotation</text>
</g>
<!-- 13&#45;&gt;10 -->
<g id="edge18" class="edge">
<title>13&#45;&gt;10</title>
<path fill="none" stroke="#c0c0c0" stroke-width="2" d="M322.5,-287.8314C322.5,-280.131 322.5,-270.9743 322.5,-262.4166"/>
<polygon fill="#c0c0c0" stroke="#c0c0c0" stroke-width="2" points="326.0001,-262.4132 322.5,-252.4133 319.0001,-262.4133 326.0001,-262.4132"/>
</g>
<!-- 14 -->
<g id="node15" class="node">
<title>14</title>
<path fill="none" stroke="#56d87b" stroke-width="2" d="M208,-468C208,-468 173,-468 173,-468 167,-468 161,-462 161,-456 161,-456 161,-444 161,-444 161,-438 167,-432 173,-432 173,-432 208,-432 208,-432 214,-432 220,-438 220,-444 220,-444 220,-456 220,-456 220,-462 214,-468 208,-468"/>
<text text-anchor="middle" x="190.5" y="-447.5" font-family="sans" font-size="10.00" fill="#000000">index_fa</text>
</g>
<!-- 14&#45;&gt;11 -->
<g id="edge21" class="edge">
<title>14&#45;&gt;11</title>
<path fill="none" stroke="#c0c0c0" stroke-width="2" d="M190.5,-431.8314C190.5,-424.131 190.5,-414.9743 190.5,-406.4166"/>
<polygon fill="#c0c0c0" stroke="#c0c0c0" stroke-width="2" points="194.0001,-406.4132 190.5,-396.4133 187.0001,-406.4133 194.0001,-406.4132"/>
</g>
<!-- 15 -->
<g id="node16" class="node">
<title>15</title>
<path fill="none" stroke="#d88556" stroke-width="2" d="M232.5,-540C232.5,-540 146.5,-540 146.5,-540 140.5,-540 134.5,-534 134.5,-528 134.5,-528 134.5,-516 134.5,-516 134.5,-510 140.5,-504 146.5,-504 146.5,-504 232.5,-504 232.5,-504 238.5,-504 244.5,-510 244.5,-516 244.5,-516 244.5,-528 244.5,-528 244.5,-534 238.5,-540 232.5,-540"/>
<text text-anchor="middle" x="189.5" y="-519.5" font-family="sans" font-size="10.00" fill="#000000">raw_link_assembly</text>
</g>
<!-- 15&#45;&gt;11 -->
<g id="edge19" class="edge">
<title>15&#45;&gt;11</title>
<path fill="none" stroke="#c0c0c0" stroke-width="2" d="M172.2365,-503.5761C164.2611,-493.7997 155.652,-481.1148 151.5,-468 146.6708,-452.7462 146.5773,-447.2239 151.5,-432 154.6688,-422.2001 160.3532,-412.6831 166.4191,-404.4383"/>
<polygon fill="#c0c0c0" stroke="#c0c0c0" stroke-width="2" points="169.3526,-406.3703 172.7892,-396.3483 163.8529,-402.0398 169.3526,-406.3703"/>
</g>
<!-- 15&#45;&gt;14 -->
<g id="edge22" class="edge">
<title>15&#45;&gt;14</title>
<path fill="none" stroke="#c0c0c0" stroke-width="2" d="M189.7523,-503.8314C189.8593,-496.131 189.9865,-486.9743 190.1053,-478.4166"/>
<polygon fill="#c0c0c0" stroke="#c0c0c0" stroke-width="2" points="193.6049,-478.4609 190.2443,-468.4133 186.6056,-478.3637 193.6049,-478.4609"/>
</g>
<!-- 16 -->
<g id="node17" class="node">
<title>16</title>
<path fill="none" stroke="#56d8b9" stroke-width="2" d="M390.5,-468C390.5,-468 250.5,-468 250.5,-468 244.5,-468 238.5,-462 238.5,-456 238.5,-456 238.5,-444 238.5,-444 238.5,-438 244.5,-432 250.5,-432 250.5,-432 390.5,-432 390.5,-432 396.5,-432 402.5,-438 402.5,-444 402.5,-444 402.5,-456 402.5,-456 402.5,-462 396.5,-468 390.5,-468"/>
<text text-anchor="middle" x="320.5" y="-447.5" font-family="sans" font-size="10.00" fill="#000000">exfi_build_baited_bloom_filter</text>
</g>
<!-- 15&#45;&gt;16 -->
<g id="edge24" class="edge">
<title>15&#45;&gt;16</title>
<path fill="none" stroke="#c0c0c0" stroke-width="2" d="M222.5568,-503.8314C239.4677,-494.5368 260.2385,-483.1208 278.2941,-473.1971"/>
<polygon fill="#c0c0c0" stroke="#c0c0c0" stroke-width="2" points="280.376,-476.0468 287.4537,-468.1628 277.0043,-469.9122 280.376,-476.0468"/>
</g>
<!-- 16&#45;&gt;11 -->
<g id="edge20" class="edge">
<title>16&#45;&gt;11</title>
<path fill="none" stroke="#c0c0c0" stroke-width="2" d="M287.6955,-431.8314C270.9138,-422.5368 250.3015,-411.1208 232.3837,-401.1971"/>
<polygon fill="#c0c0c0" stroke="#c0c0c0" stroke-width="2" points="233.7377,-397.9461 223.294,-396.1628 230.3462,-404.0696 233.7377,-397.9461"/>
</g>
<!-- 17 -->
<g id="node18" class="node">
<title>17</title>
<path fill="none" stroke="#d6d856" stroke-width="2" d="M366.5,-540C366.5,-540 274.5,-540 274.5,-540 268.5,-540 262.5,-534 262.5,-528 262.5,-528 262.5,-516 262.5,-516 262.5,-510 268.5,-504 274.5,-504 274.5,-504 366.5,-504 366.5,-504 372.5,-504 378.5,-510 378.5,-516 378.5,-516 378.5,-528 378.5,-528 378.5,-534 372.5,-540 366.5,-540"/>
<text text-anchor="middle" x="320.5" y="-519.5" font-family="sans" font-size="10.00" fill="#000000">raw_link_pe_sample</text>
</g>
<!-- 17&#45;&gt;16 -->
<g id="edge23" class="edge">
<title>17&#45;&gt;16</title>
<path fill="none" stroke="#c0c0c0" stroke-width="2" d="M320.5,-503.8314C320.5,-496.131 320.5,-486.9743 320.5,-478.4166"/>
<polygon fill="#c0c0c0" stroke="#c0c0c0" stroke-width="2" points="324.0001,-478.4132 320.5,-468.4133 317.0001,-478.4133 324.0001,-478.4132"/>
</g>
</g>
</svg>
